<svg fill="#D7D6D6" height="512" viewBox="0 0 512 512" width="512" xmlns="http://www.w3.org/2000/svg"><g><path d="m477.88 162.57-96-104a8.016 8.016 0 0 0 -5.88-2.57h-136v-40a8 8 0 0 0 -8-8h-80a8 8 0 0 0 -8 8v40h-104a8 8 0 0 0 -8 8v208a8 8 0 0 0 8 8h104v216a8 8 0 0 0 8 8h80a8 8 0 0 0 8-8v-216h136a8.016 8.016 0 0 0 5.88-2.57l96-104a8.007 8.007 0 0 0 0-10.86zm-317.88-138.57h8v16a8 8 0 0 0 16 0v-16h40v32h-64zm64 464h-24v-96a8 8 0 0 0 -16 0v96h-24v-208h40v32a8 8 0 0 0 16 0v-32h8zm148.5-224h-324.5v-192h324.5l88.61 96z"/><path d="m208 336a8 8 0 0 0 -8 8v8a8 8 0 0 0 16 0v-8a8 8 0 0 0 -8-8z"/><path d="m176 288a8 8 0 0 0 -8 8v48a8 8 0 0 0 16 0v-48a8 8 0 0 0 -8-8z"/><path d="m328 240h-10.67a79.98 79.98 0 0 0 -116.09-45.4c-.7-12.65-.31-22.72 1.16-29.34 16.82-5.18 44.08-7.25 61.6-7.26a8 8 0 0 0 7.16-11.58c-10.55-21.09-28.09-28.09-42.14-29.23 5.65-5.94 15.05-12.26 22.56-16.03a8 8 0 0 0 -.43-14.51c-19.15-8.21-36.35-8.82-51.1-1.8-15.92 7.57-24.67 22.16-28.77 31.19-16.41-4.26-32.51-1.04-46.99 9.49a77.263 77.263 0 0 0 -19.15 20.35 8 8 0 0 0 9.39 11.71c9.9-3.3 26.26.36 40.7 5.24-5.46 10.76-10.13 26.51-13.94 47.03-2.26 12.17-3.71 23.24-4.5 30.14h-48.79a8 8 0 0 0 0 16h240a8 8 0 0 0 0-16zm-197.23-99.24c1.05-.87 2.16-1.74 3.33-2.57 12.11-8.65 25.21-10.25 38.93-4.76a8.007 8.007 0 0 0 10.66-5.23c.06-.21 6.38-20.89 23.23-28.9 6.36-3.03 13.58-3.95 21.6-2.77-9.92 7.22-20.52 17.69-20.52 29.47a8.024 8.024 0 0 0 9.89 7.77 38.085 38.085 0 0 1 15.1.19 32.129 32.129 0 0 1 15.92 8.5c-5.7.3-12.57.79-19.79 1.59-21.87 2.43-37.07 6.56-46.17 12.58-9.8-4.52-32.06-13.89-52.18-15.87zm33.9 99.24h-11.79c2.38-20.09 8.1-54.74 17.39-71.46 4.11 1.73 7.62 3.35 10.15 4.62a7.84 7.84 0 0 0 4.78.74 210.745 210.745 0 0 0 .83 32 80.424 80.424 0 0 0 -21.36 34.1zm16.99 0a64.568 64.568 0 0 1 19.14-25.8 64 64 0 0 1 80.4 0 64.568 64.568 0 0 1 19.14 25.8z"/><path d="m360 240h-8a8 8 0 0 0 0 16h8a8 8 0 0 0 0-16z"/></g></svg>